<mxfile host="app.diagrams.net" agent="Mozilla/5.0 (Macintosh; Intel Mac OS X 10_15_7) AppleWebKit/537.36 (KHTML, like Gecko) Chrome/128.0.0.0 Safari/537.36" version="24.7.7">
  <diagram name="Page-1" id="74e2e168-ea6b-b213-b513-2b3c1d86103e">
    <mxGraphModel dx="954" dy="655" grid="0" gridSize="10" guides="1" tooltips="1" connect="1" arrows="1" fold="1" page="1" pageScale="1" pageWidth="1920" pageHeight="1200" background="none" math="0" shadow="0">
      <root>
        <mxCell id="0" />
        <mxCell id="1" parent="0" />
        <mxCell id="77e6c97f196da883-1" value="tg K线" style="swimlane;html=1;childLayout=stackLayout;startSize=20;rounded=0;shadow=0;labelBackgroundColor=none;strokeWidth=1;fontFamily=Verdana;fontSize=8;align=center;" parent="1" vertex="1">
          <mxGeometry x="70" y="40" width="1216" height="1145" as="geometry" />
        </mxCell>
        <mxCell id="77e6c97f196da883-2" value="twalk" style="swimlane;html=1;startSize=20;" parent="77e6c97f196da883-1" vertex="1">
          <mxGeometry y="20" width="160" height="1125" as="geometry" />
        </mxCell>
        <mxCell id="4jLp0wiWyJVRZJtCaKYS-16" value="" style="edgeStyle=none;curved=1;rounded=0;orthogonalLoop=1;jettySize=auto;html=1;fontSize=12;startSize=8;endSize=8;" edge="1" parent="77e6c97f196da883-2" source="4jLp0wiWyJVRZJtCaKYS-14" target="4jLp0wiWyJVRZJtCaKYS-15">
          <mxGeometry relative="1" as="geometry" />
        </mxCell>
        <mxCell id="4jLp0wiWyJVRZJtCaKYS-14" value="修复k线" style="rounded=1;whiteSpace=wrap;html=1;" vertex="1" parent="77e6c97f196da883-2">
          <mxGeometry x="20" y="600" width="120" height="60" as="geometry" />
        </mxCell>
        <mxCell id="4jLp0wiWyJVRZJtCaKYS-15" value="发送mq" style="whiteSpace=wrap;html=1;rounded=1;" vertex="1" parent="77e6c97f196da883-2">
          <mxGeometry x="20" y="780" width="120" height="60" as="geometry" />
        </mxCell>
        <mxCell id="77e6c97f196da883-3" value="telegram bot" style="swimlane;html=1;startSize=20;" parent="77e6c97f196da883-1" vertex="1">
          <mxGeometry x="160" y="20" width="234" height="1125" as="geometry" />
        </mxCell>
        <mxCell id="4jLp0wiWyJVRZJtCaKYS-1" value="定时生成K线任务" style="rounded=1;whiteSpace=wrap;html=1;" vertex="1" parent="77e6c97f196da883-3">
          <mxGeometry x="24" y="96" width="120" height="60" as="geometry" />
        </mxCell>
        <mxCell id="4jLp0wiWyJVRZJtCaKYS-5" value="上传K线图" style="whiteSpace=wrap;html=1;rounded=1;" vertex="1" parent="77e6c97f196da883-3">
          <mxGeometry x="35" y="287" width="120" height="60" as="geometry" />
        </mxCell>
        <mxCell id="4jLp0wiWyJVRZJtCaKYS-17" value="生产k线图" style="rounded=1;whiteSpace=wrap;html=1;" vertex="1" parent="77e6c97f196da883-3">
          <mxGeometry x="47" y="778" width="120" height="60" as="geometry" />
        </mxCell>
        <mxCell id="4jLp0wiWyJVRZJtCaKYS-21" value="上传K线图" style="whiteSpace=wrap;html=1;rounded=1;" vertex="1" parent="77e6c97f196da883-3">
          <mxGeometry x="49" y="914" width="120" height="60" as="geometry" />
        </mxCell>
        <mxCell id="77e6c97f196da883-4" value="Node服务" style="swimlane;html=1;startSize=20;" parent="77e6c97f196da883-1" vertex="1">
          <mxGeometry x="394" y="20" width="364" height="1125" as="geometry" />
        </mxCell>
        <mxCell id="4jLp0wiWyJVRZJtCaKYS-3" value="生成K线图" style="whiteSpace=wrap;html=1;rounded=1;" vertex="1" parent="77e6c97f196da883-4">
          <mxGeometry x="104" y="96" width="120" height="60" as="geometry" />
        </mxCell>
        <mxCell id="4jLp0wiWyJVRZJtCaKYS-18" value="生成K线" style="whiteSpace=wrap;html=1;rounded=1;" vertex="1" parent="77e6c97f196da883-4">
          <mxGeometry x="104" y="778" width="120" height="60" as="geometry" />
        </mxCell>
        <mxCell id="77e6c97f196da883-5" value="oss" style="swimlane;html=1;startSize=20;" parent="77e6c97f196da883-1" vertex="1">
          <mxGeometry x="758" y="20" width="268" height="1125" as="geometry" />
        </mxCell>
        <mxCell id="4jLp0wiWyJVRZJtCaKYS-8" value="替换or保存" style="whiteSpace=wrap;html=1;rounded=1;" vertex="1" parent="77e6c97f196da883-5">
          <mxGeometry x="38" y="385" width="120" height="60" as="geometry" />
        </mxCell>
        <mxCell id="4jLp0wiWyJVRZJtCaKYS-23" value="保存or替换" style="rounded=1;whiteSpace=wrap;html=1;" vertex="1" parent="77e6c97f196da883-5">
          <mxGeometry x="34" y="977" width="120" height="60" as="geometry" />
        </mxCell>
        <mxCell id="4jLp0wiWyJVRZJtCaKYS-4" value="" style="edgeStyle=none;curved=1;rounded=0;orthogonalLoop=1;jettySize=auto;html=1;fontSize=12;startSize=8;endSize=8;" edge="1" parent="77e6c97f196da883-1" source="4jLp0wiWyJVRZJtCaKYS-1" target="4jLp0wiWyJVRZJtCaKYS-3">
          <mxGeometry relative="1" as="geometry" />
        </mxCell>
        <mxCell id="4jLp0wiWyJVRZJtCaKYS-7" style="edgeStyle=none;curved=0;rounded=0;orthogonalLoop=1;jettySize=auto;html=1;entryX=1;entryY=0.5;entryDx=0;entryDy=0;fontSize=12;startSize=8;endSize=8;" edge="1" parent="77e6c97f196da883-1" source="4jLp0wiWyJVRZJtCaKYS-3" target="4jLp0wiWyJVRZJtCaKYS-5">
          <mxGeometry relative="1" as="geometry">
            <Array as="points">
              <mxPoint x="558" y="339" />
            </Array>
          </mxGeometry>
        </mxCell>
        <mxCell id="4jLp0wiWyJVRZJtCaKYS-19" value="" style="edgeStyle=none;curved=1;rounded=0;orthogonalLoop=1;jettySize=auto;html=1;fontSize=12;startSize=8;endSize=8;" edge="1" parent="77e6c97f196da883-1" source="4jLp0wiWyJVRZJtCaKYS-17" target="4jLp0wiWyJVRZJtCaKYS-18">
          <mxGeometry relative="1" as="geometry" />
        </mxCell>
        <mxCell id="4jLp0wiWyJVRZJtCaKYS-20" style="edgeStyle=none;curved=0;rounded=0;orthogonalLoop=1;jettySize=auto;html=1;entryX=0;entryY=0.5;entryDx=0;entryDy=0;fontSize=12;startSize=8;endSize=8;" edge="1" parent="77e6c97f196da883-1" source="4jLp0wiWyJVRZJtCaKYS-5" target="4jLp0wiWyJVRZJtCaKYS-8">
          <mxGeometry relative="1" as="geometry">
            <Array as="points">
              <mxPoint x="255" y="433" />
            </Array>
          </mxGeometry>
        </mxCell>
        <mxCell id="4jLp0wiWyJVRZJtCaKYS-22" style="edgeStyle=none;curved=0;rounded=0;orthogonalLoop=1;jettySize=auto;html=1;entryX=1;entryY=0.5;entryDx=0;entryDy=0;fontSize=12;startSize=8;endSize=8;" edge="1" parent="77e6c97f196da883-1" source="4jLp0wiWyJVRZJtCaKYS-18" target="4jLp0wiWyJVRZJtCaKYS-21">
          <mxGeometry relative="1" as="geometry">
            <Array as="points">
              <mxPoint x="558" y="964" />
            </Array>
          </mxGeometry>
        </mxCell>
        <mxCell id="4jLp0wiWyJVRZJtCaKYS-24" style="edgeStyle=none;curved=0;rounded=0;orthogonalLoop=1;jettySize=auto;html=1;entryX=0;entryY=0.5;entryDx=0;entryDy=0;fontSize=12;startSize=8;endSize=8;" edge="1" parent="77e6c97f196da883-1" source="4jLp0wiWyJVRZJtCaKYS-21" target="4jLp0wiWyJVRZJtCaKYS-23">
          <mxGeometry relative="1" as="geometry">
            <Array as="points">
              <mxPoint x="269" y="1024" />
            </Array>
          </mxGeometry>
        </mxCell>
        <mxCell id="4jLp0wiWyJVRZJtCaKYS-25" style="edgeStyle=none;curved=1;rounded=0;orthogonalLoop=1;jettySize=auto;html=1;entryX=0;entryY=0.5;entryDx=0;entryDy=0;fontSize=12;startSize=8;endSize=8;" edge="1" parent="77e6c97f196da883-1" source="4jLp0wiWyJVRZJtCaKYS-15" target="4jLp0wiWyJVRZJtCaKYS-17">
          <mxGeometry relative="1" as="geometry" />
        </mxCell>
      </root>
    </mxGraphModel>
  </diagram>
</mxfile>
